<?xml version="1.0"?>
<svg xmlns="http://www.w3.org/2000/svg" xmlns:xlink="http://www.w3.org/1999/xlink" xmlns:svgjs="http://svgjs.com/svgjs" version="1.1" width="512" height="512" x="0" y="0" viewBox="0 0 512 512" style="enable-background:new 0 0 512 512" xml:space="preserve" class=""><g><g xmlns="http://www.w3.org/2000/svg"><g><path d="m498.713 13.383c-17.569-17.696-45.887-17.865-63.249-.377l-302.73 304.924 46.032 46.262 319.947-350.809c0 .001 0 .001 0 0z" fill="#a65342" data-original="#a65342" style="" class=""/><path d="m499.087 77.091c17.362-17.488 17.195-46.01-.374-63.707l-334.168 336.588 31.812 32.042z" fill="#803b2d" data-original="#803b2d" style="" class=""/><g><path d="m17.818 257.931v15.499c0 53.982 17.555 104.905 50.766 147.263l1.011 1.29 84.173 67.007 1.488.696c31.633 14.806 65.506 22.314 100.679 22.314l41.879-120.852-41.879-133.218h-238.117z" fill="#5aaac8" data-original="#fff5f5" style="" class=""/><path d="m255.935 257.931v254.069c63.603 0 123.399-24.816 168.373-69.876 44.974-45.061 69.743-104.971 69.743-168.695v-15.499h-238.116z" fill="#0368a4" data-original="#e6e9f2" style="" class=""/></g></g><g><g><g><g><path d="m81.925 375.969c41.394 0 75.071 33.873 75.071 75.51v60.201l-78.498-36.02-78.498-99.691z" fill="#00a98f" data-original="#00a98f" style=""/></g></g></g><path d="m156.996 511.68h-81.925c-41.394 0-75.071-33.808-75.071-75.363v-60.348z" fill="#00dc80" data-original="#00dc80" style=""/></g></g></g></svg>
