<?xml version="1.0"?>
<svg xmlns="http://www.w3.org/2000/svg" xmlns:xlink="http://www.w3.org/1999/xlink" xmlns:svgjs="http://svgjs.com/svgjs" version="1.1" width="512" height="512" x="0" y="0" viewBox="0 0 512 512" style="enable-background:new 0 0 512 512" xml:space="preserve" class=""><g>
<g xmlns="http://www.w3.org/2000/svg">
	<circle style="" cx="256" cy="256" r="256" fill="#0368a3" data-original="#9330b2" class=""/>
	<circle style="" cx="256" cy="256" r="256" fill="#0368a3" data-original="#9330b2" class=""/>
</g>
<path xmlns="http://www.w3.org/2000/svg" style="" d="M512,256c0-16.666-1.611-32.953-4.653-48.731L406.079,105.92c-49.689-49.689-130.25-49.689-179.939,0  c-43.794,43.794-48.981,111.566-15.578,161.05l-26.188,26.188l-9.261-9.26l-69.933,69.933c-12.497,12.497-12.497,32.758,0,45.255  L214.774,508.68c13.423,2.173,27.19,3.32,41.226,3.32C397.385,512,512,397.385,512,256z" fill="#002236" data-original="#5c1b6f" class=""/>
<rect xmlns="http://www.w3.org/2000/svg" x="189.474" y="277.095" transform="matrix(-0.7071 -0.7071 0.7071 -0.7071 154.2376 660.1764)" style="" width="48.744" height="42.1" fill="#b6efab" data-original="#b6efab"/>
<rect xmlns="http://www.w3.org/2000/svg" x="201.404" y="294.584" transform="matrix(-0.7071 0.7071 -0.7071 -0.7071 596.6785 366.3847)" style="" width="42.11" height="24.37" fill="#5ede4e" data-original="#5ede4e"/>
<circle xmlns="http://www.w3.org/2000/svg" style="" cx="316.11" cy="195.89" r="127.24" fill="#ffffff" data-original="#ffffff"/>
<path xmlns="http://www.w3.org/2000/svg" style="" d="M406.084,285.86c-43.798,43.798-111.581,48.988-161.065,15.585  c-6.661-4.497-12.982-9.687-18.88-15.585l179.937-179.937C455.765,155.611,455.772,236.172,406.084,285.86z" fill="#ffec97" data-original="#ffec97"/>
<circle xmlns="http://www.w3.org/2000/svg" style="" cx="316.11" cy="195.89" r="97.3" fill="#57555c" data-original="#57555c" class=""/>
<path xmlns="http://www.w3.org/2000/svg" style="" d="M384.913,264.689c-38,38-99.603,38-137.603,0l137.603-137.603  C422.913,165.086,422.906,226.696,384.913,264.689z" fill="#2a2a2c" data-original="#2a2a2c" class=""/>
<circle xmlns="http://www.w3.org/2000/svg" style="" cx="316.11" cy="195.89" r="86.69" fill="#a2caff" data-original="#00f8fe" class=""/>
<path xmlns="http://www.w3.org/2000/svg" style="" d="M377.418,257.194c-33.856,33.856-88.756,33.856-122.612,0l122.605-122.605  C411.267,168.445,411.274,223.338,377.418,257.194z" fill="#85a7d3" data-original="#00b7be" class=""/>
<polygon xmlns="http://www.w3.org/2000/svg" style="" points="346.21,141.974 316.109,172.074 286.009,141.974 262.194,165.79 292.294,195.89   262.194,225.99 286.009,249.805 316.109,219.705 346.21,249.805 370.025,225.99 339.925,195.89 370.025,165.79 " fill="#ff0435" data-original="#ff0435" class=""/>
<polygon xmlns="http://www.w3.org/2000/svg" style="" points="339.92,195.89 370.03,225.99 346.21,249.81 316.11,219.71 286.01,249.81 274.1,237.9   358.12,153.88 370.03,165.79 " fill="#990011" data-original="#990011" class=""/>
<path xmlns="http://www.w3.org/2000/svg" style="" d="M112.914,406.819l-7.734-7.734c-12.497-12.497-12.497-32.758,0-45.255l69.933-69.933l52.988,52.988  l-69.933,69.933C145.672,419.316,125.411,419.316,112.914,406.819z" fill="#ffcf00" data-original="#ffcf00" class=""/>
<path xmlns="http://www.w3.org/2000/svg" style="" d="M228.105,336.885l-69.933,69.933c-12.502,12.502-32.76,12.495-45.255,0l-3.868-3.868l92.56-92.56  L228.105,336.885z" fill="#ffaa20" data-original="#ffaa20" class=""/>
<g xmlns="http://www.w3.org/2000/svg">
</g>
<g xmlns="http://www.w3.org/2000/svg">
</g>
<g xmlns="http://www.w3.org/2000/svg">
</g>
<g xmlns="http://www.w3.org/2000/svg">
</g>
<g xmlns="http://www.w3.org/2000/svg">
</g>
<g xmlns="http://www.w3.org/2000/svg">
</g>
<g xmlns="http://www.w3.org/2000/svg">
</g>
<g xmlns="http://www.w3.org/2000/svg">
</g>
<g xmlns="http://www.w3.org/2000/svg">
</g>
<g xmlns="http://www.w3.org/2000/svg">
</g>
<g xmlns="http://www.w3.org/2000/svg">
</g>
<g xmlns="http://www.w3.org/2000/svg">
</g>
<g xmlns="http://www.w3.org/2000/svg">
</g>
<g xmlns="http://www.w3.org/2000/svg">
</g>
<g xmlns="http://www.w3.org/2000/svg">
</g>
</g></svg>
