<?xml version="1.0"?>
<svg xmlns="http://www.w3.org/2000/svg" xmlns:xlink="http://www.w3.org/1999/xlink" xmlns:svgjs="http://svgjs.com/svgjs" version="1.1" width="512" height="512" x="0" y="0" viewBox="0 0 409.6 409.6" style="enable-background:new 0 0 512 512" xml:space="preserve" class=""><g>
<circle xmlns="http://www.w3.org/2000/svg" style="" cx="204.8" cy="204.8" r="204.8" fill="#0368a3" data-original="#45b39c" class=""/>
<path xmlns="http://www.w3.org/2000/svg" style="" d="M407.347,235.151l-85.214-85.214h-13.482l-23.595-23.595H87.466v133.333  l147.673,147.673C323.951,394.158,394.151,323.962,407.347,235.151z" fill="#005080" data-original="#000000" class=""/>
<rect xmlns="http://www.w3.org/2000/svg" x="135.34" y="149.93" style="" width="186.79" height="133.29" fill="#2f4859" data-original="#2f4859"/>
<rect xmlns="http://www.w3.org/2000/svg" x="87.47" y="126.36" style="" width="197.59" height="133.29" fill="#64798a" data-original="#64798a"/>
<rect xmlns="http://www.w3.org/2000/svg" x="87.47" y="191.44" style="" width="197.59" height="68.22" fill="#3a556a" data-original="#3a556a"/>
<path xmlns="http://www.w3.org/2000/svg" style="" d="M264.587,237.232c4.153,0,7.307-3.821,6.443-7.883c-3.625-17.054-18.771-29.847-36.906-29.847  s-33.281,12.794-36.906,29.847c-0.864,4.063,2.29,7.883,6.443,7.883H264.587z" fill="#d5d6db" data-original="#d5d6db"/>
<g xmlns="http://www.w3.org/2000/svg">
	<path style="" d="M197.219,229.349c3.625-17.054,18.771-29.847,36.906-29.847v37.731h-30.463   C199.509,237.232,196.355,233.412,197.219,229.349z" fill="#ebf0f3" data-original="#ebf0f3"/>
	<path style="" d="M252.173,177.882c0,9.968-8.081,22.292-18.049,22.292s-18.049-12.324-18.049-22.292   c0-9.968,8.081-18.049,18.049-18.049C244.092,159.833,252.173,167.914,252.173,177.882z" fill="#ebf0f3" data-original="#ebf0f3"/>
</g>
<path xmlns="http://www.w3.org/2000/svg" style="" d="M234.124,200.174c9.968,0,18.049-12.324,18.049-22.292s-8.081-18.049-18.049-18.049V200.174z" fill="#d5d6db" data-original="#d5d6db"/>
<rect xmlns="http://www.w3.org/2000/svg" x="87.47" y="126.36" style="" width="197.59" height="25.813" fill="#fcd462" data-original="#fcd462" class=""/>
<g xmlns="http://www.w3.org/2000/svg">
	<rect x="98.22" y="167" style="" width="93.4" height="13.01" fill="#dc8744" data-original="#dc8744" class=""/>
	<rect x="98.23" y="188.54" style="" width="77.68" height="13.01" fill="#dc8744" data-original="#dc8744" class=""/>
	<rect x="98.22" y="210.09" style="" width="53.884" height="13.01" fill="#dc8744" data-original="#dc8744" class=""/>
</g>
<rect xmlns="http://www.w3.org/2000/svg" x="240.13" y="133.08" style="" width="31.04" height="12.574" fill="#e56353" data-original="#e56353"/>
<g xmlns="http://www.w3.org/2000/svg">
	<rect x="201.51" y="133.08" style="" width="31.04" height="12.574" fill="#d15241" data-original="#d15241"/>
	<rect x="162.9" y="133.08" style="" width="31.04" height="12.574" fill="#d15241" data-original="#d15241"/>
</g>
<g xmlns="http://www.w3.org/2000/svg">
</g>
<g xmlns="http://www.w3.org/2000/svg">
</g>
<g xmlns="http://www.w3.org/2000/svg">
</g>
<g xmlns="http://www.w3.org/2000/svg">
</g>
<g xmlns="http://www.w3.org/2000/svg">
</g>
<g xmlns="http://www.w3.org/2000/svg">
</g>
<g xmlns="http://www.w3.org/2000/svg">
</g>
<g xmlns="http://www.w3.org/2000/svg">
</g>
<g xmlns="http://www.w3.org/2000/svg">
</g>
<g xmlns="http://www.w3.org/2000/svg">
</g>
<g xmlns="http://www.w3.org/2000/svg">
</g>
<g xmlns="http://www.w3.org/2000/svg">
</g>
<g xmlns="http://www.w3.org/2000/svg">
</g>
<g xmlns="http://www.w3.org/2000/svg">
</g>
<g xmlns="http://www.w3.org/2000/svg">
</g>
</g></svg>
