<svg height="512pt" viewBox="0 0 512 512" width="512pt" xmlns="http://www.w3.org/2000/svg"><path d="m38 27h436v71.160156h-436zm0 0" fill="#00a5ff"/><path d="m256 27h218v71.160156h-218zm0 0" fill="#006ef4"/><path d="m27.261719 164.160156h457.476562v347.839844h-457.476562zm0 0" fill="#e1e1e3"/><path d="m256 164.160156h228.738281v347.839844h-228.738281zm0 0" fill="#d9d9db"/><path d="m0 91.699219h512v102.300781h-512zm0 0" fill="#55fbfe"/><path d="m86.75 497h150v-251h-150zm0 0" fill="#00a5ff"/><path d="m294.25 246h131v131h-131zm0 0" fill="#006ef4"/><path d="m0 482h512v30h-512zm0 0" fill="#55fbfe"/><path d="m256 91.699219h256v102.300781h-256zm0 0" fill="#00e8f2"/><path d="m256 482h256v30h-256zm0 0" fill="#00e8f2"/><path d="m363 107c0 59-48 107-107 107s-107-48-107-107 48-107 107-107 107 48 107 107zm0 0" fill="#ff623f"/><path d="m363 107c0 59-48 107-107 107v-214c59 0 107 48 107 107zm0 0" fill="#e70020"/><path d="m302.078125 91.699219v30h-31.078125v31.082031h-30v-31.082031h-31.078125v-30h31.078125v-31.078125h30v31.078125zm0 0" fill="#e1e1e3"/><path d="m271 152.78125h-15v-92.160156h15v31.078125h31.078125v30h-31.078125zm0 0" fill="#d9d9db"/></svg>